name C:\Users\u0101727\Documents\MyRepositories\upper-imu-dc\Results\main_tracking\Case_22\SHRUG01_angularVelocities_bodyFrame.mot
datacolumns 4
datarows 70
range 0.71000000 1.40000000
endheader 
time	radius_imu_x	radius_imu_y	radius_imu_z	
          0.71000000	          0.04814584	          0.66300679	          0.13383132	
          0.72000000	         -0.04890704	          0.65574307	          0.00945593	
          0.73000000	         -0.11287291	          0.65352817	         -0.07502845	
          0.74000000	         -0.15287800	          0.63657172	         -0.13197982	
          0.75000000	         -0.17652819	          0.58596182	         -0.17070980	
          0.76000000	         -0.19058326	          0.48464264	         -0.19761818	
          0.77000000	         -0.20138463	          0.31980764	         -0.21665670	
          0.78000000	         -0.21463609	          0.08140009	         -0.22959099	
          0.79000000	         -0.23420002	         -0.24048076	         -0.23630932	
          0.80000000	         -0.26010318	         -0.65263468	         -0.23554240	
          0.81000000	         -0.28625446	         -1.14697058	         -0.22608831	
          0.82000000	         -0.29584313	         -1.66390819	         -0.21015555	
          0.83000000	         -0.26222638	         -2.06067458	         -0.19582127	
          0.84000000	         -0.12687283	         -1.81930924	         -0.22690893	
          0.85000000	          0.09835848	         -0.72609311	         -0.31020224	
          0.86000000	          0.26604641	          0.06965357	         -0.38381525	
          0.87000000	          0.30036248	         -0.03201504	         -0.36698038	
          0.88000000	          0.23166158	         -0.54470198	         -0.33501368	
          0.89000000	          0.12377059	         -1.20279261	         -0.25723664	
          0.90000000	          0.03766387	         -1.46077802	         -0.20143542	
          0.91000000	          0.02002471	         -0.77145766	         -0.20357895	
          0.92000000	         -0.01062967	         -0.03713918	         -0.19212506	
          0.93000000	         -0.10843583	          0.04903157	         -0.13968313	
          0.94000000	         -0.21049183	          0.00010967	         -0.07782919	
          0.95000000	         -0.31763752	          0.05286748	         -0.03894258	
          0.96000000	         -0.40715713	          0.10677421	          0.00243075	
          0.97000000	         -0.41826399	          0.28006121	          0.01930718	
          0.98000000	         -0.35952119	          0.69510129	          0.00819286	
          0.99000000	         -0.25211350	          1.46644649	         -0.03733156	
          1.00000000	         -0.14430421	          2.12408760	         -0.10732554	
          1.01000000	         -0.09674395	          2.16997713	         -0.14928293	
          1.02000000	         -0.10669131	          1.81810707	         -0.16858232	
          1.03000000	         -0.15404532	          1.30860717	         -0.17793916	
          1.04000000	         -0.22974277	          0.73024622	         -0.17682885	
          1.05000000	         -0.32543504	          0.13195830	         -0.16327712	
          1.06000000	         -0.43037573	         -0.44514645	         -0.13613127	
          1.07000000	         -0.52623818	         -0.92737145	         -0.09810220	
          1.08000000	         -0.58193646	         -1.16736262	         -0.05916436	
          1.09000000	         -0.55288953	         -0.87966874	         -0.04190984	
          1.10000000	         -0.45094423	          0.31960186	         -0.01876667	
          1.11000000	         -0.17147418	          1.63461983	         -0.10289753	
          1.12000000	         -0.10044308	          2.08484054	         -0.09537190	
          1.13000000	         -0.12867123	          1.96071271	         -0.05522558	
          1.14000000	         -0.19927348	          1.59373688	         -0.01500373	
          1.15000000	         -0.27876561	          1.14987920	          0.01277782	
          1.16000000	         -0.34818970	          0.72471234	          0.02368345	
          1.17000000	         -0.40077391	          0.36512043	          0.01875850	
          1.18000000	         -0.43684018	          0.09220966	          0.00161923	
          1.19000000	         -0.46027611	         -0.08811647	         -0.02317117	
          1.20000000	         -0.47593747	         -0.17920341	         -0.05116397	
          1.21000000	         -0.48802636	         -0.19071611	         -0.07864412	
          1.22000000	         -0.49924243	         -0.13687941	         -0.10295384	
          1.23000000	         -0.51055505	         -0.03490930	         -0.12258249	
          1.24000000	         -0.52142001	          0.09659936	         -0.13706958	
          1.25000000	         -0.53023956	          0.23909781	         -0.14678365	
          1.26000000	         -0.53486436	          0.37507179	         -0.15265214	
          1.27000000	         -0.53299201	          0.48860686	         -0.15590551	
          1.28000000	         -0.52243061	          0.56583011	         -0.15786789	
          1.29000000	         -0.50129929	          0.59568033	         -0.15980059	
          1.30000000	         -0.46826053	          0.57131326	         -0.16279723	
          1.31000000	         -0.42280919	          0.49183763	         -0.16772748	
          1.32000000	         -0.36553496	          0.36345663	         -0.17522463	
          1.33000000	         -0.29822196	          0.19919726	         -0.18571473	
          1.34000000	         -0.22369246	          0.01704924	         -0.19946921	
          1.35000000	         -0.14541327	         -0.16305998	         -0.21663074	
          1.36000000	         -0.06699449	         -0.32258174	         -0.23716808	
          1.37000000	          0.00826436	         -0.44708645	         -0.26076438	
          1.38000000	          0.07769158	         -0.52799844	         -0.28669155	
          1.39000000	          0.13938940	         -0.56336661	         -0.31373444	
          1.40000000	          0.19223890	         -0.55769329	         -0.34023883	
